#!OML:ASF \\sashay\E\Suitcase\Project 1\Capture day 1\Session 1\Male1.ASF
:FULLY-SPECIFIED
:DEGREES
534
root 0.183866 17.4124 -11.4248 4.74653 1.63954 -5.89901
lowerback 10.3897 0.230066 3.82158
upperback -0.0336026 1.02643 4.24379
thorax -5.89188 0.457232 2.14694
lowerneck -20.631 0.529185 -1.10993
upperneck 9.86851 1.59937 -3.88658
head 6.36947 0.380672 -0.903211
rclavicle -2.08724e-015 6.36111e-015
rhumerus -41.8019 -33.858 -57.4524
rradius 14.184
rwrist 1.83532
rhand -15.8894 10.2917
rfingers 7.12502
rthumb 10.3068 -19.4357
lclavicle -2.08724e-015 6.36111e-015
lhumerus -40.7196 7.17394 74.8754
lradius 30.7195
lwrist 2.64598
lhand -2.60128 40.7231
lfingers 7.12502
lthumb 23.0966 69.3588
rfemur -3.96322 -1.0342 32.9163
rtibia 17.794
rfoot -17.7009 -11.2681
rtoes 12.3597
lfemur -31.0978 -3.68007 -11.9387
ltibia 56.8302
lfoot -14.1013 -1.05377
ltoes 8.48268
535
root 0.182235 17.395 -11.2963 4.81814 1.8419 -6.16771
lowerback 10.503 0.253273 4.25847
upperback 0.091177 1.1087 4.21053
thorax -5.81629 0.485738 1.85255
lowerneck -21.1471 0.622226 -0.419482
upperneck 9.97003 1.61517 -4.33175
head 6.49515 0.368349 -1.15769
rclavicle -1.38155e-014 1.82882e-014
rhumerus -42.8432 -35.5162 -56.0275
rradius 13.7974
rwrist 3.70271
rhand -16.0908 9.58489
rfingers 7.12502
rthumb 10.1126 -20.1521
lclavicle -1.38155e-014 1.82882e-014
lhumerus -40.9124 6.97746 74.6277
lradius 30.3369
lwrist 2.89981
lhand -3.16269 40.3135
lfingers 7.12502
lthumb 22.5578 69.0156
rfemur -3.20868 -0.838919 33.3013
rtibia 17.1147
rfoot -18.0238 -11.6887
rtoes 14.1577
lfemur -31.8486 -3.74354 -11.6743
ltibia 55.2778
lfoot -13.6348 -0.392723
ltoes 7.26604
536
root 0.175717 17.4114 -11.1661 5.11064 1.39539 -6.28797
lowerback 10.5541 0.434603 4.29329
upperback 0.0302707 1.36204 4.22167
thorax -5.9097 0.607713 1.80618
lowerneck -20.9774 0.66478 -0.930913
upperneck 9.83872 1.71064 -3.7006
head 6.41521 0.455065 -0.859079
rclavicle 2.20651e-014 4.92986e-014
rhumerus -42.9934 -34.3301 -56.6524
rradius 14.1964
rwrist 2.27809
rhand -15.7442 8.38078
rfingers 7.12502
rthumb 10.4469 -21.3397
lclavicle 2.20651e-014 4.92986e-014
lhumerus -41.5233 7.82252 73.9488
lradius 30.3183
lwrist 2.42452
lhand -3.06406 40.7472
lfingers 7.12502
lthumb 22.6525 69.4378
rfemur -2.53755 -0.25715 33.4461
rtibia 16.1553
rfoot -18.1182 -11.8806
rtoes 13.9736
lfemur -32.6261 -3.46251 -11.5284
ltibia 53.9479
lfoot -13.5396 -0.0879213
ltoes 8.2391
537
root 0.171288 17.3954 -11.0162 5.06382 1.61008 -6.4984
lowerback 10.419 0.437663 4.629
upperback 0.209698 1.3859 4.23827
thorax -5.63672 0.614826 1.63112
lowerneck -20.8751 0.706297 -0.731649
upperneck 9.47645 1.74293 -4.02395
head 6.28776 0.457649 -0.991507
rclavicle -2.88238e-015 1.59028e-015
rhumerus -43.6319 -34.7549 -55.87
rradius 13.8013
rwrist 2.87386
rhand -15.7974 8.54999
rfingers 7.12502
rthumb 10.3956 -21.173
lclavicle -2.88238e-015 1.59028e-015
lhumerus -41.9143 7.66935 73.7703
lradius 30.4556
lwrist 2.6548
lhand -2.90727 40.844
lfingers 7.12502
lthumb 22.803 69.5162
rfemur -1.48247 -0.284089 33.7896
rtibia 15.341
rfoot -18.2882 -12.2065
rtoes 13.6694
lfemur -32.9345 -3.54788 -11.3227
ltibia 52.4392
lfoot -13.9272 0.0166238
ltoes 6.50807
538
root 0.167963 17.4268 -10.8906 5.55456 1.53129 -5.94899
lowerback 10.2282 0.458596 4.15928
upperback 0.226584 1.33378 4.08953
thorax -5.51734 0.601438 1.74622
lowerneck -21.7718 0.825351 -0.621329
upperneck 9.48247 1.95666 -4.46881
head 6.44365 0.513907 -1.12995
rclavicle -1.03368e-014 2.3059e-014
rhumerus -44.1178 -35.451 -55.0119
rradius 13.3808
rwrist 3.78758
rhand -15.9793 8.976
rfingers 7.12502
rthumb 10.2201 -20.7557
lclavicle -1.03368e-014 2.3059e-014
lhumerus -42.3123 8.66898 73.2683
lradius 30.3442
lwrist 2.04629
lhand -3.37713 41.7859
lfingers 7.12502
lthumb 22.352 70.5129
rfemur -1.07072 -0.267768 33.1496
rtibia 14.3574
rfoot -18.1134 -12.1322
rtoes 13.4478
lfemur -33.348 -4.12603 -11.5378
ltibia 50.9212
lfoot -14.6912 -1.27235
ltoes 16.7851
539
root 0.170044 17.3829 -10.766 5.79489 1.37348 -6.41212
lowerback 10.462 0.569303 4.69508
upperback 0.0360491 1.57597 4.11611
thorax -5.83837 0.700286 1.43723
lowerneck -21.0729 0.973739 0.130108
upperneck 8.82796 1.99672 -5.11521
head 6.13819 0.527178 -1.45292
rclavicle 6.75868e-015 3.57812e-014
rhumerus -45.5556 -35.9758 -53.7233
rradius 13.4256
rwrist 4.56023
rhand -15.9378 8.85663
rfingers 7.12502
rthumb 10.2601 -20.8731
lclavicle 6.75868e-015 3.57812e-014
lhumerus -43.0534 8.4287 72.9538
lradius 30.2368
lwrist 2.1797
lhand -3.6199 41.6363
lfingers 7.12502
lthumb 22.1189 70.391
rfemur -0.501937 0.144342 33.6858
rtibia 13.6494
rfoot -17.9492 -12.36
rtoes 13.8202
lfemur -34.6313 -3.4682 -11.4754
ltibia 48.8374
lfoot -13.8555 -0.0373471
ltoes 3.82971
540
root 0.17561 17.3897 -10.6188 5.90128 1.28629 -6.13126
lowerback 10.3979 0.602332 4.58857
upperback 0.157244 1.58512 3.96844
thorax -5.6717 0.708843 1.33986
lowerneck -21.8799 0.945046 -0.595496
upperneck 9.46362 2.07898 -4.25662
head 6.45369 0.59231 -1.05069
rclavicle 2.0773e-014 5.56597e-015
rhumerus -46.0118 -36.6525 -52.8104
rradius 12.8252
rwrist 5.51717
rhand -15.9759 8.40856
rfingers 7.12502
rthumb 10.2234 -21.323
lclavicle 2.0773e-014 5.56597e-015
lhumerus -43.4055 8.94973 72.6138
lradius 30.1575
lwrist 1.81282
lhand -3.75902 41.7206
lfingers 7.12502
lthumb 21.9854 70.4911
rfemur 0.490637 -0.543989 33.2945
rtibia 12.7056
rfoot -17.8147 -11.9005
rtoes 12.5938
lfemur -34.8081 -3.52892 -11.8685
ltibia 46.8665
lfoot -13.3658 -0.075918
ltoes 4.59967
